<svg xmlns="http://www.w3.org/2000/svg" width="512" height="512" viewBox="0 0 512 512">
<defs>
  <linearGradient id="starGrad" x1="0" y1="0" x2="0.9" y2="1">
    <stop offset="0%" stop-color="#FFE38B"/><stop offset="52%" stop-color="#FFD66B"/><stop offset="100%" stop-color="#F5A63A"/>
  </linearGradient>
  <linearGradient id="purpleGrad" x1="0" y1="0" x2="1" y2="1">
    <stop offset="0%" stop-color="#7C4CD6"/><stop offset="100%" stop-color="#6D3BA6"/>
  </linearGradient>
  <linearGradient id="skyGrad" x1="0" y1="0" x2="0" y2="1">
    <stop offset="0%" stop-color="#DDF7FB"/><stop offset="100%" stop-color="#FFF5DE"/>
  </linearGradient>
  <linearGradient id="pinkSky" x1="0" y1="0" x2="0" y2="1">
    <stop offset="0%" stop-color="#FBE7F0"/><stop offset="100%" stop-color="#FFF7E8"/>
  </linearGradient>
  <linearGradient id="mintGrad" x1="0" y1="0" x2="0" y2="1">
    <stop offset="0%" stop-color="#B7E7D8"/><stop offset="100%" stop-color="#73C5AC"/>
  </linearGradient>
  <radialGradient id="shine" cx="35%" cy="25%" r="70%">
    <stop offset="0%" stop-color="#FFFFFF" stop-opacity=".72"/><stop offset="55%" stop-color="#FFFFFF" stop-opacity=".12"/><stop offset="100%" stop-color="#FFFFFF" stop-opacity="0"/>
  </radialGradient>
  <filter id="shadow" x="-30%" y="-30%" width="160%" height="160%">
    <feGaussianBlur in="SourceAlpha" stdDeviation="10"/>
    <feOffset dy="10"/>
    <feComponentTransfer><feFuncA type="linear" slope=".22"/></feComponentTransfer>
    <feMerge><feMergeNode/><feMergeNode in="SourceGraphic"/></feMerge>
  </filter>
  <filter id="smallShadow" x="-30%" y="-30%" width="160%" height="160%">
    <feGaussianBlur in="SourceAlpha" stdDeviation="5"/><feOffset dy="5"/>
    <feComponentTransfer><feFuncA type="linear" slope=".18"/></feComponentTransfer>
    <feMerge><feMergeNode/><feMergeNode in="SourceGraphic"/></feMerge>
  </filter>
</defs><g filter="url(#smallShadow)">
    <ellipse cx="255" cy="280" rx="125" ry="105" fill="#56B8E8"/>
    <ellipse cx="190" cy="295" rx="70" ry="55" fill="#87D3F1" transform="rotate(-25 190 295)"/>
    <circle cx="332" cy="218" r="72" fill="#5BC5EC"/>
    <path d="M390 225 L465 250 L390 275 Z" fill="#F5A33D"/>
    <circle cx="345" cy="207" r="13" fill="#2E2436"/><circle cx="341" cy="203" r="4" fill="white"/>
    <path d="M198 381 L184 420 M270 383 L282 420" stroke="#D97E32" stroke-width="12" stroke-linecap="round"/></g></svg>