<svg xmlns="http://www.w3.org/2000/svg" width="512" height="512" viewBox="0 0 512 512">
<defs>
  <linearGradient id="starGrad" x1="0" y1="0" x2="0.9" y2="1">
    <stop offset="0%" stop-color="#FFE38B"/><stop offset="52%" stop-color="#FFD66B"/><stop offset="100%" stop-color="#F5A63A"/>
  </linearGradient>
  <linearGradient id="purpleGrad" x1="0" y1="0" x2="1" y2="1">
    <stop offset="0%" stop-color="#7C4CD6"/><stop offset="100%" stop-color="#6D3BA6"/>
  </linearGradient>
  <linearGradient id="skyGrad" x1="0" y1="0" x2="0" y2="1">
    <stop offset="0%" stop-color="#DDF7FB"/><stop offset="100%" stop-color="#FFF5DE"/>
  </linearGradient>
  <linearGradient id="pinkSky" x1="0" y1="0" x2="0" y2="1">
    <stop offset="0%" stop-color="#FBE7F0"/><stop offset="100%" stop-color="#FFF7E8"/>
  </linearGradient>
  <linearGradient id="mintGrad" x1="0" y1="0" x2="0" y2="1">
    <stop offset="0%" stop-color="#B7E7D8"/><stop offset="100%" stop-color="#73C5AC"/>
  </linearGradient>
  <radialGradient id="shine" cx="35%" cy="25%" r="70%">
    <stop offset="0%" stop-color="#FFFFFF" stop-opacity=".72"/><stop offset="55%" stop-color="#FFFFFF" stop-opacity=".12"/><stop offset="100%" stop-color="#FFFFFF" stop-opacity="0"/>
  </radialGradient>
  <filter id="shadow" x="-30%" y="-30%" width="160%" height="160%">
    <feGaussianBlur in="SourceAlpha" stdDeviation="10"/>
    <feOffset dy="10"/>
    <feComponentTransfer><feFuncA type="linear" slope=".22"/></feComponentTransfer>
    <feMerge><feMergeNode/><feMergeNode in="SourceGraphic"/></feMerge>
  </filter>
  <filter id="smallShadow" x="-30%" y="-30%" width="160%" height="160%">
    <feGaussianBlur in="SourceAlpha" stdDeviation="5"/><feOffset dy="5"/>
    <feComponentTransfer><feFuncA type="linear" slope=".18"/></feComponentTransfer>
    <feMerge><feMergeNode/><feMergeNode in="SourceGraphic"/></feMerge>
  </filter>
</defs><g filter="url(#smallShadow)"><path d="M398.0 256.0 L461.0 256.0" stroke="#F4B52F" stroke-width="24" stroke-linecap="round"/><path d="M387.2 310.3 L445.4 334.5" stroke="#F4B52F" stroke-width="24" stroke-linecap="round"/><path d="M356.4 356.4 L401.0 401.0" stroke="#F4B52F" stroke-width="24" stroke-linecap="round"/><path d="M310.3 387.2 L334.5 445.4" stroke="#F4B52F" stroke-width="24" stroke-linecap="round"/><path d="M256.0 398.0 L256.0 461.0" stroke="#F4B52F" stroke-width="24" stroke-linecap="round"/><path d="M201.7 387.2 L177.5 445.4" stroke="#F4B52F" stroke-width="24" stroke-linecap="round"/><path d="M155.6 356.4 L111.0 401.0" stroke="#F4B52F" stroke-width="24" stroke-linecap="round"/><path d="M124.8 310.3 L66.6 334.5" stroke="#F4B52F" stroke-width="24" stroke-linecap="round"/><path d="M114.0 256.0 L51.0 256.0" stroke="#F4B52F" stroke-width="24" stroke-linecap="round"/><path d="M124.8 201.7 L66.6 177.5" stroke="#F4B52F" stroke-width="24" stroke-linecap="round"/><path d="M155.6 155.6 L111.0 111.0" stroke="#F4B52F" stroke-width="24" stroke-linecap="round"/><path d="M201.7 124.8 L177.5 66.6" stroke="#F4B52F" stroke-width="24" stroke-linecap="round"/><path d="M256.0 114.0 L256.0 51.0" stroke="#F4B52F" stroke-width="24" stroke-linecap="round"/><path d="M310.3 124.8 L334.5 66.6" stroke="#F4B52F" stroke-width="24" stroke-linecap="round"/><path d="M356.4 155.6 L401.0 111.0" stroke="#F4B52F" stroke-width="24" stroke-linecap="round"/><path d="M387.2 201.7 L445.4 177.5" stroke="#F4B52F" stroke-width="24" stroke-linecap="round"/><circle cx="256" cy="256" r="122" fill="#FFD34E"/><circle cx="216" cy="220" r="55" fill="url(#shine)" opacity=".65"/></g></svg>